# Created by Kenney (www.kenney.nl)

mtllib obstacle3.mtl

g mergedBlocks

v 0.2548166 0.08024005 -0.2025
v 0.3697599 0.08024005 -0.2025
v -0.3697599 0.3247599 -0.2025
v 0.3697599 0.1154748 -0.2025
v -0.2797599 0.3697599 -0.2025
v -0.3697599 0.3697599 -0.2025
v 0.3697599 0.1154748 -0.171
v -0.2797599 0.3697599 -0.171
v 0.2548166 0.08024005 -0.171
v -0.3697599 0.3247599 -0.171
v 0.45 0.08024005 -0.14476
v 0.45 0.08024005 0.14476
v 0.396 0.08024005 -0.14476
v 0.4275 0.08024005 0.10857
v 0.396 0.08024005 0.10857
v 0.4275 0.08024005 0.14476
v 0.396 0.33357 -0.14476
v 0.4275 0.33357 -0.14476
v 0.45 -4.424189E-14 -0.225
v 0.45 0.3697599 -0.14476
v 0.45 0.45 -0.225
v 0.45 0.45 0.225
v 0.45 0.3697599 0.14476
v 0.45 4.424189E-14 0.225
v 0.396 0.3697599 0.14476
v 0.4275 0.3697599 -0.10857
v 0.396 0.3697599 -0.10857
v 0.4275 0.3697599 -0.14476
v 0.396 0.11643 0.14476
v 0.4275 0.11643 0.14476
v -0.45 4.424189E-14 0.225
v 0.3697599 0.08024005 0.225
v 0.3697599 0.3697599 0.225
v -0.3697599 0.3697599 0.225
v -0.3697599 0.08024005 0.225
v -0.45 0.45 0.225
v 0.2797599 0.396 -0.14476
v -0.3697599 0.396 -0.14476
v 0.2797599 0.4275 -0.14476
v -0.3697599 0.45 -0.14476
v 0.3697599 0.4275 -0.14476
v 0.3697599 0.45 -0.14476
v -0.3697599 0.45 0.14476
v -0.3697599 0.4275 0.1095252
v -0.3697599 0.396 0.1095252
v -0.3697599 0.4275 0.14476
v 0.3697599 0.396 -0.09975995
v 0.3697599 0.4275 -0.09975995
v 0.3697599 0.396 0.14476
v 0.3697599 0.45 0.14476
v -0.3697599 2.846587E-14 0.14476
v 0.3697599 2.846587E-14 0.14476
v -0.3697599 0.0225 0.14476
v -0.2548166 0.0225 0.14476
v 0.3697599 0.05400001 0.14476
v -0.2548166 0.05400001 0.14476
v -0.2548166 0.396 0.14476
v -0.2548166 0.4275 0.14476
v 0.3697599 0.0225 -0.14476
v 0.3697599 0.0225 -0.09975995
v 0.3697599 -2.846587E-14 -0.14476
v 0.3697599 0.05400001 -0.09975995
v -0.45 0.45 -0.225
v -0.3697599 -2.846587E-14 -0.14476
v -0.45 -4.424189E-14 -0.225
v -0.3697599 0.05400001 -0.14476
v -0.3697599 0.05400001 0.1095252
v -0.3697599 0.0225 0.1095252
v 0.2797599 0.0225 -0.14476
v 0.2797599 0.05400001 -0.14476
v 0.3697599 0.3697599 0.171
v -0.2797599 0.3697599 0.2025
v -0.3697599 0.3697599 0.2025
v -0.2797599 0.3697599 0.171
v -0.3697599 0.3247599 0.171
v -0.3697599 0.08024005 0.171
v -0.3697599 0.3247599 0.2025
v 0.3697599 0.08024005 -0.225
v 0.3697599 0.3697599 -0.225
v 0.3697599 0.3697599 -0.171
v 0.3697599 0.08024005 0.2025
v 0.2548166 0.08024005 0.2025
v 0.2548166 0.08024005 0.171
v 0.3697599 0.1154748 0.2025
v 0.3697599 0.1154748 0.171
v -0.396 0.11643 -0.14476
v -0.4275 0.11643 -0.14476
v -0.396 0.3697599 -0.14476
v -0.45 0.3697599 -0.14476
v -0.45 0.08024005 -0.14476
v -0.4275 0.08024005 -0.14476
v -0.3697599 0.08024005 -0.225
v -0.3697599 0.3697599 -0.225
v -0.3697599 0.08024005 -0.171
v -0.4275 0.08024005 -0.10857
v -0.4275 0.3697599 0.10857
v -0.4275 0.33357 0.14476
v -0.4275 0.3697599 0.14476
v -0.396 0.3697599 0.10857
v -0.396 0.08024005 -0.10857
v -0.396 0.33357 0.14476
v -0.45 0.08024005 0.14476
v -0.396 0.08024005 0.14476
v -0.45 0.3697599 0.14476
v -0.2025 0.48024 -0.14476
v -0.2025 0.48024 -0.10857
v -0.225 0.48024 -0.14476
v -0.225 0.48024 0.14476
v -0.171 0.48024 0.14476
v -0.171 0.48024 -0.10857
v -0.171 0.73357 0.14476
v -0.2025 0.73357 0.14476
v -0.225 0.85 -0.225
v -0.225 0.4 -0.225
v -0.225 0.4 0.225
v -0.225 0.76976 0.14476
v -0.225 0.76976 -0.14476
v -0.225 0.85 0.225
v -0.2025 0.76976 0.14476
v -0.2025 0.76976 0.10857
v -0.171 0.76976 -0.14476
v -0.171 0.76976 0.10857
v -0.171 0.51643 -0.14476
v -0.2025 0.51643 -0.14476
v 0.10857 0.4225 -0.14476
v 0.10857 0.454 -0.14476
v -0.14476 0.4225 0.10857
v -0.14476 0.454 0.10857
v 0.10857 0.796 -0.14476
v 0.10857 0.8275 -0.14476
v -0.14476 0.796 0.10857
v -0.14476 0.8275 0.10857
v 0.225 0.4 -0.225
v -0.14476 0.48024 -0.225
v -0.14476 0.76976 -0.225
v 0.14476 0.76976 -0.225
v 0.14476 0.48024 -0.225
v 0.225 0.85 -0.225
v 0.14476 0.4225 -0.10857
v 0.14476 0.4225 -0.14476
v -0.10857 0.4225 0.14476
v -0.14476 0.4225 0.14476
v -0.14476 0.8275 0.14476
v -0.10857 0.8275 0.14476
v -0.14476 0.85 0.14476
v 0.14476 0.85 0.14476
v 0.14476 0.796 0.14476
v -0.10857 0.796 0.14476
v 0.14476 0.796 -0.10857
v 0.14476 0.8275 -0.10857
v 0.14476 0.85 -0.14476
v 0.14476 0.8275 -0.14476
v -0.14476 0.796 -0.14476
v -0.14476 0.85 -0.14476
v 0.14476 0.4 -0.14476
v -0.14476 0.4 -0.14476
v -0.14476 0.454 -0.14476
v -0.14476 0.4 0.14476
v 0.225 0.85 0.225
v 0.14476 0.4 0.14476
v 0.225 0.4 0.225
v 0.14476 0.454 -0.10857
v 0.14476 0.454 0.14476
v -0.10857 0.454 0.14476
v 0.14476 0.76976 -0.171
v -0.10857 0.76976 -0.171
v -0.10857 0.76976 -0.2025
v -0.14476 0.76976 -0.2025
v 0.14476 0.48024 -0.2025
v 0.14476 0.51643 -0.2025
v 0.14476 0.51643 -0.171
v 0.10857 0.48024 -0.2025
v -0.14476 0.73357 -0.2025
v -0.14476 0.76976 0.171
v -0.14476 0.51643 0.171
v -0.14476 0.76976 0.225
v -0.14476 0.51643 0.2025
v -0.14476 0.48024 0.2025
v -0.14476 0.48024 0.225
v -0.14476 0.48024 -0.171
v 0.10857 0.48024 -0.171
v -0.10857 0.48024 0.2025
v 0.14476 0.73357 0.2025
v 0.10857 0.76976 0.2025
v 0.14476 0.76976 0.2025
v -0.14476 0.73357 -0.171
v 0.14476 0.73357 0.171
v -0.10857 0.48024 0.171
v 0.10857 0.76976 0.171
v 0.171 0.51643 0.14476
v 0.2025 0.51643 0.14476
v 0.171 0.76976 0.14476
v 0.225 0.76976 0.14476
v 0.225 0.48024 0.14476
v 0.2025 0.48024 0.14476
v 0.14476 0.48024 0.225
v 0.14476 0.76976 0.225
v 0.14476 0.48024 0.171
v 0.2025 0.76976 -0.14476
v 0.2025 0.73357 -0.14476
v 0.2025 0.76976 -0.10857
v 0.2025 0.48024 0.10857
v 0.171 0.76976 -0.10857
v 0.171 0.48024 0.10857
v 0.171 0.73357 -0.14476
v 0.225 0.48024 -0.14476
v 0.171 0.48024 -0.14476
v 0.225 0.76976 -0.14476

vn 0 0 -1
vn 0.364555 0.9311819 0
vn -0.364555 -0.9311819 0
vn 0 1 0
vn 0 -0.7071068 -0.7071068
vn 1 0 0
vn 0 -1 0
vn 0 0 1
vn 0 0.7071068 0.7071068
vn -1 0 0
vn 0 0.7071068 -0.7071068
vn 0 -0.7071068 0.7071068
vn 0.364555 0 0.9311819
vn -0.364555 0 -0.9311819
vn -0.7071068 0 -0.7071068
vn 0.7071068 0 0.7071068
vn 0.7071068 0.7071068 0
vn -0.7071068 -0.7071068 0
vn 0.7071068 -0.7071068 0
vn -0.7071068 0.7071068 0

vt -0.2548166 0.08024005
vt -0.3697599 0.08024005
vt 0.3697599 0.3247599
vt -0.3697599 0.1154748
vt 0.2797599 0.3697599
vt 0.3697599 0.3697599
vt -0.3697599 -0.171
vt 0.2797599 -0.171
vt -0.3697599 -0.2025
vt 0.2797599 -0.2025
vt -0.2548166 0.171
vt -0.2548166 0.2025
vt 0.3697599 0.171
vt 0.3697599 0.2025
vt -0.45 -0.14476
vt -0.45 0.14476
vt -0.396 -0.14476
vt -0.4275 0.10857
vt -0.396 0.10857
vt -0.4275 0.14476
vt -0.396 0.08024005
vt -0.4275 0.08024005
vt -0.396 0.33357
vt -0.4275 0.33357
vt 0.225 -4.424189E-14
vt 0.14476 0.3697599
vt 0.225 0.45
vt -0.225 0.45
vt -0.14476 0.3697599
vt -0.14476 0.08024005
vt 0.14476 0.08024005
vt -0.225 4.424189E-14
vt -0.396 0.11643
vt -0.4275 0.11643
vt -0.396 0.3697599
vt -0.45 0.3697599
vt -0.45 0.08024005
vt 0.14476 0.33357
vt 0.10857 0.3697599
vt -0.10857 0.08024005
vt -0.14476 0.11643
vt 0.45 0.08024005
vt 0.396 0.08024005
vt 0.45 0.3697599
vt 0.4275 0.33357
vt 0.4275 0.3697599
vt 0.396 0.33357
vt -0.45 4.424189E-14
vt 0.3697599 0.08024005
vt 0.45 4.424189E-14
vt 0.45 0.45
vt -0.3697599 0.3697599
vt -0.45 0.45
vt 0.2797599 0.396
vt -0.3697599 0.396
vt 0.2797599 0.4275
vt -0.3697599 0.45
vt 0.3697599 0.4275
vt 0.3697599 0.45
vt 0.4275 0.11643
vt 0.396 0.11643
vt 0.396 0.3697599
vt 0.14476 0.45
vt 0.14476 0.396
vt -0.14476 0.45
vt -0.1095252 0.4275
vt -0.1095252 0.396
vt -0.14476 0.4275
vt -0.09975995 0.396
vt -0.09975995 0.4275
vt 0.3697599 2.846587E-14
vt -0.3697599 2.846587E-14
vt 0.3697599 0.0225
vt 0.2548166 0.0225
vt -0.3697599 0.05400001
vt 0.2548166 0.05400001
vt 0.2548166 0.396
vt 0.2548166 0.4275
vt -0.14476 0.0225
vt -0.09975995 0.0225
vt -0.14476 -2.846587E-14
vt 0.14476 2.846587E-14
vt -0.09975995 0.05400001
vt 0.14476 0.05400001
vt -0.3697599 0.14476
vt -0.3697599 -0.14476
vt -0.45 -0.225
vt 0.45 -0.225
vt 0.3697599 -0.14476
vt 0.45 0.225
vt -0.45 0.225
vt 0.3697599 0.14476
vt 0.14476 -2.846587E-14
vt -0.1095252 0.05400001
vt -0.1095252 0.0225
vt -0.14476 2.846587E-14
vt 0.3697599 -2.846587E-14
vt -0.3697599 -2.846587E-14
vt 0.2797599 0.0225
vt 0.2797599 0.05400001
vt -0.3697599 -0.225
vt 0.3697599 -0.225
vt 0.3697599 -0.2025
vt -0.171 0.3247599
vt -0.171 0.08024005
vt -0.2025 0.3247599
vt -0.225 0.08024005
vt -0.2025 0.3697599
vt -0.225 0.3697599
vt -0.2025 0.08024005
vt -0.2025 0.1154748
vt -0.171 0.3697599
vt -0.171 0.1154748
vt -0.3697599 0.225
vt 0.3697599 0.225
vt -0.3697599 0.2025
vt 0.2025 0.08024005
vt 0.2025 0.1154748
vt 0.225 0.08024005
vt 0.225 0.3697599
vt 0.171 0.1154748
vt 0.171 0.3697599
vt -0.45 -4.424189E-14
vt 0.45 -4.424189E-14
vt -0.3697599 0.171
vt 0.2797599 0.171
vt 0.2797599 0.2025
vt -0.2548166 -0.2025
vt 0.3697599 -0.171
vt -0.2548166 -0.171
vt 0.2025 0.3697599
vt 0.2025 0.3247599
vt 0.171 0.08024005
vt 0.171 0.3247599
vt 0.4275 -0.14476
vt 0.4275 -0.10857
vt 0.45 -0.14476
vt 0.45 0.14476
vt 0.396 0.14476
vt 0.396 -0.10857
vt -0.225 -4.424189E-14
vt 0.225 4.424189E-14
vt 0.2548166 0.08024005
vt 0.3697599 0.1154748
vt -0.3697599 0.3247599
vt -0.2797599 0.3697599
vt -0.3697599 -0.09975995
vt -0.2797599 -0.14476
vt 0.2548166 0.14476
vt 0.3697599 0.1095252
vt 0.3697599 0.396
vt -0.2548166 0.396
vt -0.2548166 0.4275
vt -0.2797599 0.396
vt -0.2797599 0.4275
vt -0.2797599 0.14476
vt -0.3697599 0.09975995
vt 0.2548166 -0.14476
vt 0.3697599 -0.1095252
vt -0.2797599 0.0225
vt -0.2797599 0.05400001
vt 0.3697599 0.05400001
vt -0.2548166 0.0225
vt -0.2548166 0.05400001
vt 0.2025 -0.14476
vt 0.2025 -0.10857
vt 0.225 -0.14476
vt 0.225 0.14476
vt 0.171 0.14476
vt 0.171 -0.10857
vt -0.171 0.33357
vt -0.2025 0.33357
vt -0.171 0.11643
vt -0.2025 0.11643
vt -0.10857 0.0225
vt -0.10857 0.05400001
vt 0.14476 0.0225
vt -0.10857 0.396
vt -0.10857 0.4275
vt 0.14476 0.4275
vt 0.2025 0.33357
vt 0.171 0.33357
vt -0.14476 0.10857
vt -0.14476 0.14476
vt 0.10857 -0.14476
vt -0.10857 0.14476
vt 0.14476 -0.10857
vt 0.14476 -0.14476
vt 0.10857 0.4275
vt -0.14476 0.396
vt 0.10857 0.396
vt 0.2025 0.11643
vt 0.171 0.11643
vt 0.10857 0.0225
vt -0.14476 0.05400001
vt 0.10857 0.05400001
vt -0.14476 -0.10857
vt 0.10857 0.14476
vt -0.14476 -0.14476
vt -0.10857 -0.14476
vt 0.14476 0.10857
vt 0.14476 0.14476
vt -0.225 -0.225
vt 0.225 -0.225
vt 0.225 0.225
vt -0.225 0.225
vt -0.14476 0.171
vt -0.14476 0.225
vt 0.10857 0.171
vt 0.10857 0.2025
vt 0.14476 0.225
vt 0.14476 0.2025
vt -0.14476 -0.2025
vt -0.14476 -0.171
vt 0.10857 -0.2025
vt 0.10857 -0.171
vt -0.10857 -0.2025
vt -0.14476 -0.225
vt 0.14476 -0.225
vt 0.14476 -0.171
vt -0.10857 -0.171
vt -0.10857 0.2025
vt -0.10857 0.171
vt 0.14476 0.171
vt -0.225 -0.14476
vt -0.225 0.14476
vt -0.171 -0.14476
vt -0.2025 0.10857
vt -0.171 0.10857
vt -0.2025 0.14476

usemtl custom5

f 3/3/1 2/2/1 1/1/1
f 2/2/1 3/3/1 4/4/1
f 4/4/1 3/3/1 5/5/1
f 5/5/1 3/3/1 6/6/1
f 4/9/2 8/8/2 7/7/2
f 8/8/2 4/9/2 5/10/2
f 10/13/3 1/12/3 9/11/3
f 1/12/3 10/13/3 3/14/3
f 13/17/4 12/16/4 11/15/4
f 12/16/4 13/17/4 14/18/4
f 14/18/4 13/17/4 15/19/4
f 16/20/4 12/16/4 14/18/4
f 17/23/5 14/22/5 15/21/5
f 14/22/5 17/23/5 18/24/5
f 21/27/6 20/26/6 19/25/6
f 20/26/6 21/27/6 22/28/6
f 20/26/6 22/28/6 23/29/6
f 23/29/6 22/28/6 12/30/6
f 11/31/6 19/25/6 20/26/6
f 19/25/6 11/31/6 24/32/6
f 24/32/6 11/31/6 12/30/6
f 24/32/6 12/30/6 22/28/6
f 25/17/7 20/16/7 23/15/7
f 20/16/7 25/17/7 26/18/7
f 26/18/7 25/17/7 27/19/7
f 28/20/7 20/16/7 26/18/7
f 25/35/1 30/34/1 29/33/1
f 23/36/1 30/34/1 25/35/1
f 12/37/1 30/34/1 23/36/1
f 30/34/1 12/37/1 16/22/1
f 26/39/6 18/38/6 28/26/6
f 18/38/6 26/39/6 14/40/6
f 14/40/6 26/39/6 30/41/6
f 14/40/6 30/41/6 16/30/6
f 20/44/8 13/43/8 11/42/8
f 13/43/8 20/44/8 18/45/8
f 18/45/8 20/44/8 28/46/8
f 17/47/8 13/43/8 18/45/8
f 24/50/8 32/49/8 31/48/8
f 32/49/8 24/50/8 22/51/8
f 32/49/8 22/51/8 33/6/8
f 33/6/8 22/51/8 34/52/8
f 35/2/8 31/48/8 32/49/8
f 31/48/8 35/2/8 36/53/8
f 36/53/8 35/2/8 34/52/8
f 36/53/8 34/52/8 22/51/8
f 39/56/8 38/55/8 37/54/8
f 38/55/8 39/56/8 40/57/8
f 40/57/8 39/56/8 41/58/8
f 40/57/8 41/58/8 42/59/8
f 26/46/9 29/61/9 30/60/9
f 29/61/9 26/46/9 27/62/9
f 43/65/6 38/64/6 40/63/6
f 38/64/6 43/65/6 44/66/6
f 38/64/6 44/66/6 45/67/6
f 44/66/6 43/65/6 46/68/6
f 49/64/10 48/70/10 47/69/10
f 48/70/10 49/64/10 50/63/10
f 50/63/10 41/68/10 48/70/10
f 41/68/10 50/63/10 42/65/10
f 53/73/1 52/72/1 51/71/1
f 52/72/1 53/73/1 54/74/1
f 54/74/1 55/75/1 52/72/1
f 55/75/1 54/74/1 56/76/1
f 58/78/1 49/55/1 57/77/1
f 49/55/1 58/78/1 50/57/1
f 50/57/1 58/78/1 46/58/1
f 50/57/1 46/58/1 43/59/1
f 61/81/10 60/80/10 59/79/10
f 60/80/10 61/81/10 52/82/10
f 60/80/10 52/82/10 62/83/10
f 62/83/10 52/82/10 55/84/10
f 21/87/4 42/86/4 50/85/4
f 42/86/4 21/87/4 63/88/4
f 42/86/4 63/88/4 40/89/4
f 40/89/4 63/88/4 36/90/4
f 22/91/4 50/85/4 36/90/4
f 50/85/4 22/91/4 21/87/4
f 36/90/4 50/85/4 43/92/4
f 36/90/4 43/92/4 40/89/4
f 24/87/7 52/86/7 19/91/7
f 52/86/7 24/87/7 31/88/7
f 52/86/7 31/88/7 51/89/7
f 51/89/7 31/88/7 64/92/7
f 61/85/7 19/91/7 52/86/7
f 19/91/7 61/85/7 65/90/7
f 65/90/7 61/85/7 64/92/7
f 65/90/7 64/92/7 31/88/7
f 67/94/6 64/93/6 66/84/6
f 64/93/6 67/94/6 68/95/6
f 68/95/6 51/96/6 64/93/6
f 51/96/6 68/95/6 53/79/6
f 59/73/8 64/98/8 61/97/8
f 64/98/8 59/73/8 69/99/8
f 69/99/8 66/75/8 64/98/8
f 66/75/8 69/99/8 70/100/8
f 34/102/7 71/7/7 33/101/7
f 71/7/7 34/102/7 72/10/7
f 72/10/7 34/102/7 73/103/7
f 74/8/7 71/7/7 72/10/7
f 77/106/6 76/105/6 75/104/6
f 76/105/6 77/106/6 35/107/6
f 35/107/6 77/106/6 73/108/6
f 35/107/6 73/108/6 34/109/6
f 2/110/10 79/109/10 78/107/10
f 79/109/10 2/110/10 4/111/10
f 79/109/10 4/111/10 80/112/10
f 80/112/10 4/111/10 7/113/10
f 81/116/4 35/115/4 32/114/4
f 35/115/4 81/116/4 82/12/4
f 35/115/4 82/12/4 83/11/4
f 35/115/4 83/11/4 76/13/4
f 32/119/10 84/118/10 81/117/10
f 33/120/10 84/118/10 32/119/10
f 33/120/10 85/121/10 84/118/10
f 85/121/10 33/120/10 71/122/10
f 88/35/8 87/34/8 86/33/8
f 89/36/8 87/34/8 88/35/8
f 90/37/8 87/34/8 89/36/8
f 87/34/8 90/37/8 91/22/8
f 65/124/1 92/49/1 19/123/1
f 92/49/1 65/124/1 63/51/1
f 92/49/1 63/51/1 93/6/1
f 93/6/1 63/51/1 79/52/1
f 78/2/1 19/123/1 92/49/1
f 19/123/1 78/2/1 21/53/1
f 21/53/1 78/2/1 79/52/1
f 21/53/1 79/52/1 63/51/1
f 8/126/7 79/114/7 80/125/7
f 79/114/7 8/126/7 5/127/7
f 79/114/7 5/127/7 93/115/7
f 93/115/7 5/127/7 6/14/7
f 78/101/4 1/128/4 2/9/4
f 1/128/4 78/101/4 92/102/4
f 1/128/4 92/102/4 94/129/4
f 94/129/4 9/130/4 1/128/4
f 95/40/10 87/41/10 91/30/10
f 87/41/10 95/40/10 96/39/10
f 96/39/10 95/40/10 97/38/10
f 96/39/10 97/38/10 98/26/10
f 96/46/11 86/61/11 87/60/11
f 86/61/11 96/46/11 99/62/11
f 101/23/12 95/22/12 100/21/12
f 95/22/12 101/23/12 97/24/12
f 104/44/1 103/43/1 102/42/1
f 103/43/1 104/44/1 97/45/1
f 97/45/1 104/44/1 98/46/1
f 101/47/1 103/43/1 97/45/1
f 6/131/6 92/119/6 93/120/6
f 92/119/6 6/131/6 3/132/6
f 92/119/6 3/132/6 94/133/6
f 94/133/6 3/132/6 10/134/6
f 104/137/7 96/136/7 98/135/7
f 89/138/7 96/136/7 104/137/7
f 88/139/7 96/136/7 89/138/7
f 96/136/7 88/139/7 99/140/7
f 100/140/4 102/138/4 103/139/4
f 102/138/4 100/140/4 95/136/4
f 102/138/4 95/136/4 91/135/4
f 102/138/4 91/135/4 90/137/4
f 65/141/10 90/30/10 63/28/10
f 90/30/10 65/141/10 31/142/10
f 90/30/10 31/142/10 102/31/10
f 102/31/10 31/142/10 104/26/10
f 89/29/10 63/28/10 90/30/10
f 63/28/10 89/29/10 36/27/10
f 36/27/10 89/29/10 104/26/10
f 36/27/10 104/26/10 31/142/10
f 84/144/8 82/143/8 81/49/8
f 82/143/8 84/144/8 77/145/8
f 77/145/8 84/144/8 72/146/8
f 77/145/8 72/146/8 73/52/8
f 85/125/2 72/127/2 84/116/2
f 72/127/2 85/125/2 74/126/2
f 77/103/3 83/130/3 82/128/3
f 83/130/3 77/103/3 75/129/3
f 39/148/4 48/147/4 41/86/4
f 48/147/4 39/148/4 58/149/4
f 58/149/4 39/148/4 44/150/4
f 58/149/4 44/150/4 46/92/4
f 48/58/13 57/152/13 47/151/13
f 57/152/13 48/58/13 58/153/13
f 45/151/14 39/155/14 37/154/14
f 39/155/14 45/151/14 44/58/14
f 60/157/7 69/156/7 59/85/7
f 69/156/7 60/157/7 54/158/7
f 69/156/7 54/158/7 68/159/7
f 68/159/7 54/158/7 53/89/7
f 68/73/14 70/161/14 69/160/14
f 70/161/14 68/73/14 67/162/14
f 62/162/13 54/163/13 60/73/13
f 54/163/13 62/162/13 56/164/13
f 107/167/4 106/166/4 105/165/4
f 108/168/4 106/166/4 107/167/4
f 109/169/4 106/166/4 108/168/4
f 106/166/4 109/169/4 110/170/4
f 111/171/12 106/110/12 110/105/12
f 106/110/12 111/171/12 112/172/12
f 114/32/10 107/30/10 113/28/10
f 107/30/10 114/32/10 115/25/10
f 107/30/10 115/25/10 108/31/10
f 108/31/10 115/25/10 116/26/10
f 117/29/10 113/28/10 107/30/10
f 113/28/10 117/29/10 118/27/10
f 118/27/10 117/29/10 116/26/10
f 118/27/10 116/26/10 115/25/10
f 116/167/7 120/166/7 119/165/7
f 117/168/7 120/166/7 116/167/7
f 121/169/7 120/166/7 117/168/7
f 120/166/7 121/169/7 122/170/7
f 121/112/8 124/174/8 123/173/8
f 117/109/8 124/174/8 121/112/8
f 107/107/8 124/174/8 117/109/8
f 124/174/8 107/107/8 105/110/8
f 106/40/10 124/41/10 105/30/10
f 124/41/10 106/40/10 120/39/10
f 120/39/10 106/40/10 112/38/10
f 120/39/10 112/38/10 119/26/10
f 127/177/15 126/176/15 125/175/15
f 126/176/15 127/177/15 128/84/15
f 131/64/15 130/179/15 129/178/15
f 130/179/15 131/64/15 132/180/15
f 116/120/1 109/133/1 108/119/1
f 109/133/1 116/120/1 112/181/1
f 112/181/1 116/120/1 119/131/1
f 111/182/1 109/133/1 112/181/1
f 114/142/1 134/31/1 133/32/1
f 134/31/1 114/142/1 113/27/1
f 134/31/1 113/27/1 135/26/1
f 135/26/1 113/27/1 136/29/1
f 137/30/1 133/32/1 134/31/1
f 133/32/1 137/30/1 138/28/1
f 138/28/1 137/30/1 136/29/1
f 138/28/1 136/29/1 113/27/1
f 141/185/7 140/184/7 139/183/7
f 140/184/7 141/185/7 125/186/7
f 125/186/7 141/185/7 127/187/7
f 127/187/7 141/185/7 142/188/7
f 145/63/1 144/189/1 143/180/1
f 146/65/1 144/189/1 145/63/1
f 147/190/1 144/189/1 146/65/1
f 144/189/1 147/190/1 148/191/1
f 120/131/11 123/193/11 124/192/11
f 123/193/11 120/131/11 122/122/11
f 147/64/10 150/179/10 149/178/10
f 146/63/10 150/179/10 147/64/10
f 151/65/10 150/179/10 146/63/10
f 150/179/10 151/65/10 152/68/10
f 154/63/6 131/178/6 153/64/6
f 131/178/6 154/63/6 132/179/6
f 132/179/6 154/63/6 145/65/6
f 132/179/6 145/65/6 143/68/6
f 140/177/8 156/96/8 155/82/8
f 156/96/8 140/177/8 125/194/8
f 156/96/8 125/194/8 157/195/8
f 157/195/8 125/194/8 126/196/8
f 151/63/8 130/189/8 152/180/8
f 154/65/8 130/189/8 151/63/8
f 153/190/8 130/189/8 154/65/8
f 130/189/8 153/190/8 129/191/8
f 152/199/4 144/198/4 150/197/4
f 144/198/4 152/199/4 130/200/4
f 144/198/4 130/200/4 132/201/4
f 144/198/4 132/201/4 143/202/4
f 128/176/6 127/175/6 157/84/6
f 158/81/6 157/84/6 127/175/6
f 157/84/6 158/81/6 156/82/6
f 158/81/6 127/175/6 142/79/6
f 138/203/4 151/199/4 146/184/4
f 151/199/4 138/203/4 113/204/4
f 151/199/4 113/204/4 154/188/4
f 154/188/4 113/204/4 118/205/4
f 159/206/4 146/184/4 118/205/4
f 146/184/4 159/206/4 138/203/4
f 118/205/4 146/184/4 145/202/4
f 118/205/4 145/202/4 154/188/4
f 161/203/7 160/199/7 133/206/7
f 160/199/7 161/203/7 115/204/7
f 160/199/7 115/204/7 158/188/7
f 158/188/7 115/204/7 156/202/7
f 155/184/7 133/206/7 160/199/7
f 133/206/7 155/184/7 114/205/7
f 114/205/7 155/184/7 156/202/7
f 114/205/7 156/202/7 115/204/7
f 160/93/10 140/79/10 155/96/10
f 140/79/10 160/93/10 139/175/10
f 139/175/10 160/93/10 162/176/10
f 162/176/10 160/93/10 163/84/10
f 142/177/1 160/81/1 158/93/1
f 160/81/1 142/177/1 141/194/1
f 160/81/1 141/194/1 163/195/1
f 163/195/1 141/194/1 164/196/1
f 150/180/16 148/178/16 149/64/16
f 148/178/16 150/180/16 144/179/16
f 166/209/7 136/208/7 165/207/7
f 136/208/7 166/209/7 167/210/7
f 136/208/7 167/210/7 135/211/7
f 135/211/7 167/210/7 168/212/7
f 169/110/10 136/109/10 137/107/10
f 136/109/10 169/110/10 170/174/10
f 136/109/10 170/174/10 165/112/10
f 165/112/10 170/174/10 171/173/10
f 167/215/17 171/214/17 170/213/17
f 171/214/17 167/215/17 166/216/17
f 173/38/1 169/30/1 172/40/1
f 169/30/1 173/38/1 170/41/1
f 170/41/1 173/38/1 167/39/1
f 167/39/1 173/38/1 168/26/1
f 162/84/16 141/175/16 139/177/16
f 141/175/16 162/84/16 164/176/16
f 176/109/6 175/173/6 174/112/6
f 175/173/6 176/109/6 177/174/6
f 177/174/6 176/109/6 178/110/6
f 178/110/6 176/109/6 179/107/6
f 137/218/4 172/217/4 169/213/4
f 172/217/4 137/218/4 134/219/4
f 172/217/4 134/219/4 180/220/4
f 180/220/4 181/221/4 172/217/4
f 183/38/8 178/30/8 182/40/8
f 178/30/8 183/38/8 177/41/8
f 177/41/8 183/38/8 184/39/8
f 184/39/8 183/38/8 185/26/8
f 181/223/18 173/212/18 172/222/18
f 173/212/18 181/223/18 186/224/18
f 168/131/6 134/119/6 135/120/6
f 134/119/6 168/131/6 173/181/6
f 134/119/6 173/181/6 180/133/6
f 180/133/6 173/181/6 186/182/6
f 183/213/19 188/216/19 187/214/19
f 188/216/19 183/213/19 182/215/19
f 175/224/20 184/222/20 189/223/20
f 184/222/20 175/224/20 177/212/20
f 192/112/1 191/174/1 190/173/1
f 193/109/1 191/174/1 192/112/1
f 194/107/1 191/174/1 193/109/1
f 191/174/1 194/107/1 195/110/1
f 161/25/8 196/31/8 115/141/8
f 196/31/8 161/25/8 159/27/8
f 196/31/8 159/27/8 197/26/8
f 197/26/8 159/27/8 176/29/8
f 179/30/8 115/141/8 196/31/8
f 115/141/8 179/30/8 118/28/8
f 118/28/8 179/30/8 176/29/8
f 118/28/8 176/29/8 159/27/8
f 176/219/7 185/213/7 197/218/7
f 185/213/7 176/219/7 184/217/7
f 184/217/7 176/219/7 189/221/7
f 189/221/7 176/219/7 174/220/7
f 188/209/4 182/210/4 198/207/4
f 179/211/4 198/207/4 182/210/4
f 198/207/4 179/211/4 196/208/4
f 179/211/4 182/210/4 178/212/4
f 201/39/6 200/38/6 199/26/6
f 200/38/6 201/39/6 202/40/6
f 202/40/6 201/39/6 191/41/6
f 202/40/6 191/41/6 195/30/6
f 201/131/9 190/193/9 191/192/9
f 190/193/9 201/131/9 203/122/9
f 205/171/5 202/110/5 204/105/5
f 202/110/5 205/171/5 200/172/5
f 208/120/8 207/133/8 206/119/8
f 207/133/8 208/120/8 200/181/8
f 200/181/8 208/120/8 199/131/8
f 205/182/8 207/133/8 200/181/8
f 196/119/10 187/182/10 198/133/10
f 187/182/10 196/119/10 183/181/10
f 183/181/10 196/119/10 185/131/10
f 185/131/10 196/119/10 197/120/10
f 192/227/7 208/226/7 193/225/7
f 208/226/7 192/227/7 201/228/7
f 201/228/7 192/227/7 203/229/7
f 199/230/7 208/226/7 201/228/7
f 206/225/4 195/230/4 194/226/4
f 195/230/4 206/225/4 202/228/4
f 202/228/4 206/225/4 207/227/4
f 202/228/4 207/227/4 204/229/4
f 138/27/6 208/26/6 133/142/6
f 208/26/6 138/27/6 159/28/6
f 208/26/6 159/28/6 193/29/6
f 193/29/6 159/28/6 194/30/6
f 206/31/6 133/142/6 208/26/6
f 133/142/6 206/31/6 161/141/6
f 161/141/6 206/31/6 194/30/6
f 161/141/6 194/30/6 159/28/6

usemtl woodDark

f 71/6/8 74/146/8 85/144/8
f 10/3/1 9/1/1 94/49/1
f 29/41/6 27/39/6 25/29/6
f 15/40/6 13/31/6 17/38/6
f 45/150/4 37/148/4 38/89/4
f 56/158/7 62/157/7 55/86/7
f 75/145/8 76/2/8 83/143/8
f 99/39/10 88/29/10 86/41/10
f 80/52/1 7/4/1 8/5/1
f 101/38/10 100/40/10 103/31/10
f 57/149/4 49/85/4 47/147/4
f 67/159/7 66/92/7 70/156/7
f 122/39/10 121/29/10 123/41/10
f 111/38/10 110/40/10 109/31/10
f 164/185/7 162/183/7 163/199/7
f 148/198/4 147/184/4 149/197/4
f 157/202/7 126/186/7 128/187/7
f 153/188/4 131/201/4 129/200/4
f 165/29/1 171/41/1 166/39/1
f 186/38/1 181/40/1 180/31/1
f 187/38/8 188/40/8 198/31/8
f 190/41/6 203/39/6 192/29/6
f 174/29/8 175/41/8 189/39/8
f 204/40/6 207/31/6 205/38/6

